<?xml version="1.0" encoding="utf-8"?>
<!-- Generator: Adobe Illustrator 19.2.1, SVG Export Plug-In . SVG Version: 6.00 Build 0)  -->
<svg version="1.1" id="Layer_1" xmlns="http://www.w3.org/2000/svg" xmlns:xlink="http://www.w3.org/1999/xlink" x="0px" y="0px"
	 viewBox="0 0 512 512" style="enable-background:new 0 0 512 512;" xml:space="preserve">
<style type="text/css">
	.st0{fill:#D8EAEF;}
	.st1{fill:#1EE26D;}
	.st2{fill:none;stroke:#354F65;stroke-width:13;stroke-linecap:round;stroke-linejoin:round;stroke-miterlimit:10;}
	.st3{fill:none;stroke:#D8EAEF;stroke-width:7;stroke-linecap:round;stroke-linejoin:round;stroke-miterlimit:10;}
	.st4{fill:none;stroke:#354F65;stroke-width:11;stroke-linecap:round;stroke-linejoin:round;stroke-miterlimit:10;}
</style>
<circle class="st0" cx="289.7" cy="382.8" r="19"/>
<circle class="st0" cx="128.3" cy="472.4" r="19"/>
<circle class="st0" cx="241.6" cy="458.8" r="19"/>
<circle class="st0" cx="354.6" cy="447.7" r="19"/>
<path class="st1" d="M350,151c-6-63-61.9-112.3-130-112.3C147.8,38.7,89.4,94,89.4,162.3c0,6.6,0.6,13.1,1.6,19.4l0,0
	c-45.3,5.3-80.6,44.9-80.6,92.9c0,51.6,40.8,93.5,91.1,93.5h30l102.2-37l140.4,37h61.2c36.6,0,66.3-26.5,66.3-59.2
	c0-29.5-24.2-54-55.9-58.4l0,0c0-51.7-40.6-99.6-90.9-99.6C353.2,150.9,351.5,151,350,151"/>
<path class="st1" d="M301.1,151c-5.1-63-52.5-113.3-110.6-109.2C153.9,44.5,89.4,94,89.4,162.3c0,6.6,1.6,19.4,1.6,19.4
	c-42.1,3.8-80.6,44.9-80.6,92.9c0,51.6,34.9,93.5,78,93.5h285.8c31.3,0,56.7-26.5,56.7-59.2c0-29.5-20.8-54-47.9-58.4l0,0
	c0-51.7-34.7-99.6-77.8-99.6C303.8,150.9,302.4,151,301.1,151c-22.8,1.4-43,14.6-56.5,34.6"/>
<path class="st2" d="M339.5,368.1h95.8c36.6,0,66.3-26.5,66.3-59.2c0-29.5-24.2-54-55.9-58.4l0,0c0-51.7-45.4-99.5-95.7-99.5
	c-1.6,0,1.6-0.1,0,0c-26.6,1.4-50.2,14.6-66,34.6"/>
<path class="st2" d="M350,151c-6-63-61.9-112.3-130-112.3C147.8,38.7,89.4,94,89.4,162.3c0,6.6,0.6,13.1,1.6,19.4l0,0
	c-45.3,5.3-80.6,44.9-80.6,92.9c0,51.6,40.8,93.5,91.1,93.5h30"/>
<g>
	<path class="st3" d="M141.6,19.3"/>
</g>
<circle class="st0" cx="177.8" cy="396.4" r="19"/>
<g>
	<line class="st4" x1="143.2" y1="487.3" x2="113.4" y2="457.5"/>
	<line class="st4" x1="107.9" y1="477.8" x2="148.7" y2="466.9"/>
	<line class="st4" x1="133.8" y1="452" x2="122.9" y2="492.7"/>
</g>
<g>
	<line class="st4" x1="255.1" y1="473.7" x2="225.3" y2="443.9"/>
	<line class="st4" x1="219.8" y1="464.2" x2="260.6" y2="453.3"/>
	<line class="st4" x1="245.7" y1="438.4" x2="234.8" y2="479.2"/>
</g>
<g>
	<line class="st4" x1="192.7" y1="411.3" x2="162.9" y2="381.4"/>
	<line class="st4" x1="157.4" y1="401.8" x2="198.1" y2="390.9"/>
	<line class="st4" x1="183.2" y1="376" x2="172.3" y2="416.7"/>
</g>
<g>
	<line class="st4" x1="304.6" y1="397.7" x2="274.8" y2="367.8"/>
	<line class="st4" x1="269.3" y1="388.2" x2="310" y2="377.3"/>
	<line class="st4" x1="295.1" y1="362.4" x2="284.2" y2="403.1"/>
</g>
<g>
	<line class="st4" x1="369.5" y1="462.6" x2="339.7" y2="432.8"/>
	<line class="st4" x1="334.2" y1="453.1" x2="375" y2="442.2"/>
	<line class="st4" x1="360" y1="427.3" x2="349.1" y2="468"/>
</g>
</svg>
