<?xml version="1.0" encoding="utf-8"?>
<!-- Generator: Adobe Illustrator 19.2.1, SVG Export Plug-In . SVG Version: 6.00 Build 0)  -->
<svg version="1.1" id="Layer_1" xmlns="http://www.w3.org/2000/svg" xmlns:xlink="http://www.w3.org/1999/xlink" x="0px" y="0px"
	 viewBox="0 0 500 500" style="enable-background:new 0 0 500 500;" xml:space="preserve">
<style type="text/css">
	.st0{fill:#1DD667;}
	.st1{fill:#231815;}
	.st2{fill:#2EA7E0;}
	.st3{fill:#F8B62D;}
</style>
<title></title>
<g id="图层_1">
	<path class="st0" d="M369.5,290.9c22.5,4.9,38.5,25.7,35.6,49c-2.8,22.1-22,38.4-44,38.7c-4.8,0.1-7.2,3.8-7.2,7.5H227.8
		c0-3.7-2.4-7.5-7.2-7.5c-24.5-0.3-46.4-16.6-52.8-40.4c-3.3-12.2-2.2-25.1,3-36.6c2.2-4.9,5-9.4,8.5-13.4c4-4.7,8.8-8.7,14.1-11.8
		c13.6-7.8,29.5-9.1,44.4-4.5c3.3,1,6.6-0.7,8.5-3.5c14.6-21.5,41.4-33.1,67.1-28.1c4.7,0.9,9.4,2.4,13.8,4.3
		c0.9,0.4,1.7,0.8,2.6,1.2s1.9,1,2.9,1.5c15.1,8.2,26.4,22,31.7,38.3C365,288.2,367,290.2,369.5,290.9z M326.5,382.4
		c3.6-1,6.7-5.4,5.2-9.2l-7.4-19.2c-1.5-3.8-5-6.4-9.2-5.2c-3.6,1-6.7,5.4-5.2,9.2l7.4,19.2C318.7,381,322.3,383.6,326.5,382.4
		L326.5,382.4z M288.5,382.4c3.6-1,6.7-5.4,5.2-9.2l-7.4-19.2c-1.5-3.8-5-6.4-9.2-5.2c-3.6,1-6.7,5.4-5.2,9.2l7.4,19.2
		C280.8,381,284.4,383.6,288.5,382.4L288.5,382.4z M250.5,382.4c3.6-1,6.7-5.4,5.2-9.2c-2.4-6.4-4.9-12.8-7.4-19.2
		c-1.4-3.8-5-6.4-9.2-5.2c-3.6,1-6.7,5.4-5.2,9.2c2.4,6.4,4.9,12.8,7.4,19.2C242.8,381,246.4,383.6,250.5,382.4L250.5,382.4z"/>
	<path class="st1" d="M404.1,232.9c9.7,0,9.6,15,0,15h-33.6c-9.7,0-9.6-15,0-15H404.1z"/>
	<path class="st1" d="M342.2,244.3c14,9.4,24.3,23.3,29.3,39.4c28,5.7,46.1,33,40.4,61c-4.9,24.1-26.1,41.4-50.7,41.4H354
		c0-3.7,2.5-7.4,7.2-7.5c22-0.3,41.2-16.6,44-38.7c2.9-23.3-13.1-44.1-35.6-49c-2.5-0.7-4.5-2.7-5.2-5.2
		c-4.1-12.9-12.1-24.3-22.9-32.6C341.8,250.2,342.1,247.3,342.2,244.3z"/>
	<path class="st1" d="M379,154.7c8.4-4.8,15.9,8.1,7.6,13l-29.1,16.8c-8.4,4.8-15.9-8.1-7.6-12.9L379,154.7z"/>
	<path class="st1" d="M377.2,277.4c27.4,7.9,46.3,35.1,42.7,63.9c-3.8,29.7-28.9,52-58.8,52.3c-4.9,0.1-7.3-3.7-7.2-7.5h7.2
		c28.6,0,51.8-23.2,51.8-51.7c0-24.6-17.3-45.8-41.4-50.7c-5-16.1-15.3-30-29.3-39.4c0.1-1.1,0.1-2.2,0.1-3.3v-0.1
		c0-0.1,0-0.3,0-0.4v-0.1c0-0.2,0-0.3,0-0.5c0-1.5-0.1-3-0.2-4.5C358.2,245.1,370.6,259.9,377.2,277.4c-1.2-0.3-2.5-0.6-3.7-1
		l5.2,5.2C378.3,280.2,377.8,278.8,377.2,277.4z"/>
	<path class="st1" d="M377.2,277.4c0.5,1.4,1,2.8,1.5,4.3l-5.2-5.2C374.8,276.7,376,277,377.2,277.4z"/>
	<path class="st2" d="M348.2,416.1c1.5,3.8-1.6,8.2-5.2,9.2c-4.2,1.1-7.8-1.5-9.2-5.2c-2.5-6.4-4.9-12.8-7.4-19.2
		c-1.5-3.8,1.6-8.2,5.2-9.2c4.2-1.1,7.8,1.5,9.2,5.2C343.3,403.3,345.8,409.7,348.2,416.1z"/>
	<path class="st1" d="M342.3,240.9c0-0.1,0-0.3,0-0.4C342.3,240.6,342.3,240.8,342.3,240.9z"/>
	<path class="st1" d="M341.6,243.9c0.4-0.9,0.7-1.9,0.8-2.9c0,1.1,0,2.2-0.1,3.3C342,244.2,341.8,244,341.6,243.9z"/>
	<path class="st1" d="M341.6,243.9c-1.6,3.2-5.6,4.4-8.9,3.5c-1-0.5-1.9-1-2.9-1.5c-1.6-1.4-2.5-3.4-2.4-5.4c0-1.2,0.3-2.4,0.8-3.5
		C332.9,238.8,337.4,241.1,341.6,243.9z"/>
	<path class="st1" d="M328.2,236.9c3.1-5.8,13.8-4.8,14.1,3c0,0.2,0,0.3,0,0.5v0.1c0,0.1,0,0.3,0,0.4v0.1c-0.1,1-0.3,2-0.8,2.9
		C337.4,241.1,332.9,238.8,328.2,236.9z"/>
	<path class="st1" d="M332.6,247.4c3.3,0.9,7.3-0.2,8.9-3.5c0.2,0.1,0.4,0.3,0.6,0.4c-0.1,3-0.4,5.9-0.8,8.8
		C338.6,251,335.7,249,332.6,247.4z"/>
	<path class="st2" d="M331.8,373.2c1.5,3.8-1.6,8.2-5.2,9.2c-4.2,1.1-7.8-1.5-9.2-5.2l-7.4-19.2c-1.5-3.8,1.6-8.2,5.2-9.2
		c4.2-1.1,7.8,1.5,9.2,5.2L331.8,373.2z"/>
	<path class="st1" d="M318.3,99.4c4.8-8.4,17.8-0.8,13,7.6l-16.8,29.1c-4.8,8.4-17.8,0.8-13-7.6L318.3,99.4z"/>
	<path class="st1" d="M327.2,236.5c-0.2-2.8-0.5-5.5-0.9-8.3c5.5,1.8,10.8,4.2,15.8,7.2c0.1,1.5,0.1,3,0.2,4.5
		c-0.4-7.8-11-8.8-14.1-3L327.2,236.5z"/>
	<path class="st1" d="M328.2,236.9c-0.6,1.1-0.9,2.3-0.8,3.5c0-1.3-0.1-2.6-0.1-3.9L328.2,236.9z"/>
	<path class="st1" d="M327.3,240.4c-0.1,2.1,0.8,4.1,2.4,5.4c-0.8-0.4-1.7-0.8-2.6-1.2C327.3,243.3,327.3,241.9,327.3,240.4z"/>
	<path class="st1" d="M220.5,261.7c4.1,0,8.2,0.4,12.3,1.2l0,0c2.3,0.5,4.6,1.1,6.9,1.8c19-28.6,55.3-40.3,87.5-28.2
		c0.1,1.3,0.1,2.6,0.1,3.9s-0.1,2.9-0.2,4.3c-4.4-1.9-9.1-3.4-13.8-4.3c-25.7-5-52.5,6.6-67.1,28.1c-1.8,2.7-5.1,4.5-8.5,3.5
		c-14.9-4.6-30.9-3.3-44.4,4.5c-5.4,3.1-10.1,7.1-14.1,11.8c-1.5-2.1-3-4.3-4.3-6.5C186.6,268.9,203.2,261.7,220.5,261.7z"/>
	<path class="st1" d="M301.1,231.8c-24.7,0-47.7,12.3-61.4,32.9c-2.3-0.7-4.6-1.3-6.9-1.8l0,0l0.4-2l8.5-3.4c-1.6-0.5-3.3-0.9-5-1.3
		c18.7-24.1,49.2-35.8,79.3-30.5c3.5,0.6,7,1.5,10.4,2.6c0.4,2.7,0.7,5.5,0.9,8.3C318.9,233.4,310,231.8,301.1,231.8z"/>
	<path class="st2" d="M310.2,416.1c1.5,3.8-1.6,8.2-5.2,9.2c-4.2,1.1-7.8-1.5-9.2-5.2l-7.4-19.2c-1.5-3.8,1.6-8.2,5.2-9.2
		c4.2-1.1,7.8,1.5,9.2,5.2C305.3,403.3,307.8,409.7,310.2,416.1z"/>
	<path class="st3" d="M261.4,160.2c33.7,7,59.6,34.1,64.9,68.1c-3.4-1.1-6.8-2-10.3-2.6c-30-5.3-60.5,6.4-79.2,30.5
		c-23.6-5.4-48.2,1.6-65.5,18.5c-11.2-24.7-9.5-53.3,4.3-76.7C193.2,169.1,228.1,153.4,261.4,160.2z"/>
	<path class="st2" d="M293.8,373.2c1.5,3.8-1.6,8.2-5.2,9.2c-4.2,1.1-7.8-1.5-9.2-5.2L272,358c-1.5-3.8,1.6-8.2,5.2-9.2
		c4.2-1.1,7.8,1.5,9.2,5.2L293.8,373.2z"/>
	<path class="st2" d="M272.3,416.1c1.5,3.8-1.6,8.2-5.2,9.2c-4.2,1.1-7.8-1.5-9.2-5.2l-7.4-19.2c-1.5-3.8,1.6-8.2,5.2-9.2
		c4.2-1.1,7.8,1.5,9.2,5.2L272.3,416.1z"/>
	<path class="st2" d="M255.8,373.2c1.5,3.8-1.6,8.2-5.2,9.2c-4.2,1.1-7.8-1.5-9.2-5.2c-2.5-6.4-4.9-12.8-7.4-19.2
		c-1.5-3.8,1.6-8.2,5.2-9.2c4.2-1.1,7.8,1.5,9.2,5.2C250.9,360.4,253.4,366.8,255.8,373.2z"/>
	<path class="st1" d="M253.1,81.9v33.7c0,9.7-15,9.7-15,0V81.9C238.1,72.2,253.1,72.3,253.1,81.9z"/>
	<path class="st1" d="M241.7,257.5l-8.5,3.4c1.1-1.6,2.3-3.2,3.5-4.8C238.4,256.5,240.1,257,241.7,257.5z"/>
	<path class="st1" d="M171.2,274.7c17.3-16.9,41.9-23.9,65.5-18.5c-1.2,1.5-2.4,3.1-3.5,4.8l-0.4,2c-21.3-4.3-43.3,2.8-58,18.8
		C173.5,279.4,172.3,277.1,171.2,274.7z"/>
	<path class="st1" d="M189.6,128.5c4.8,8.4-8.1,15.9-13,7.6l-16.8-29.2c-4.8-8.4,8.2-15.9,13-7.6L189.6,128.5z"/>
	<path class="st1" d="M158.3,323.9c0,34.4,27.9,62.2,62.2,62.2c0,0,0,0,0,0h7.2c0,3.8-2.4,7.5-7.2,7.5c-17.6-0.1-34.5-6.8-47.4-18.7
		c-23.3-21.4-28.8-57.1-13.7-84.8c0.5-0.9,1-1.8,1.6-2.7c0.5,1,1.1,1.9,1.6,2.9c0.9,1.5,1.9,3,2.9,4.4
		C160.8,303.7,158.3,313.8,158.3,323.9z"/>
	<path class="st1" d="M174.9,281.7c1.3,2.3,2.7,4.4,4.3,6.5c-3.5,4-6.3,8.6-8.5,13.4c-1.8-2.2-3.5-4.5-5.1-6.8
		C168.1,290,171.2,285.6,174.9,281.7z"/>
	<path class="st1" d="M342.1,235.4c-5-3-10.3-5.4-15.8-7.2c-5.3-34-31.2-61.1-64.9-68.1c-33.3-6.8-68.2,8.9-85.8,37.9
		c-13.9,23.3-15.5,51.9-4.4,76.6c-3.9,3.9-7.4,8.2-10.2,12.9c-19.3-34.5-15-78.2,10-108.8c25.4-31,69.6-43.2,107.3-29.4
		C314.8,162.8,339.8,196.6,342.1,235.4z"/>
	<path class="st1" d="M174.9,281.7c-3.7,4-6.8,8.4-9.3,13.1c-1-1.4-1.9-2.9-2.9-4.4c-0.6-1-1.1-1.9-1.6-2.9c2.9-4.7,6.3-9,10.2-12.9
		C172.3,277.1,173.5,279.4,174.9,281.7z"/>
	<path class="st1" d="M220.5,378.6c4.8,0,7.2,3.8,7.2,7.5h-7.2c-34.4,0-62.2-27.9-62.2-62.3c0-10.1,2.5-20.1,7.2-29.1
		c1.6,2.4,3.3,4.7,5.1,6.8c-5.2,11.5-6.3,24.4-3,36.6C174.2,362,196,378.4,220.5,378.6z"/>
	<path class="st1" d="M141.2,171.5c8.4,4.8,0.8,17.8-7.6,12.9l-29.1-16.8c-8.4-4.8-0.8-17.8,7.6-13L141.2,171.5z"/>
	<path class="st1" d="M133.6,296.4c8.4-4.8,15.9,8.1,7.6,13l-29.2,16.8c-8.4,4.8-15.9-8.1-7.6-13L133.6,296.4z"/>
	<path class="st1" d="M120.7,232.9c9.7,0,9.7,15,0,15H87.1c-9.7,0-9.7-15,0-15H120.7z"/>
</g>
</svg>
