<?xml version="1.0" encoding="utf-8"?>
<!-- Generator: Adobe Illustrator 19.2.1, SVG Export Plug-In . SVG Version: 6.00 Build 0)  -->
<svg version="1.1" id="Layer_1" xmlns="http://www.w3.org/2000/svg" xmlns:xlink="http://www.w3.org/1999/xlink" x="0px" y="0px"
	 viewBox="0 0 512 512" style="enable-background:new 0 0 512 512;" xml:space="preserve">
<style type="text/css">
	.st0{fill:#60E879;}
	.st1{fill:#DB1B1B;}
</style>
<g>
	<path class="st0" d="M512,256c0,141.4-114.6,256-256,256S0,397.4,0,256S114.6,0,256,0S512,114.6,512,256z"/>
	<g>
		<path class="st1" d="M391.1,194.6c-2.3-19.9-7.1-25.7-10.5-28.4c-5.4-4.2-15.2-5.7-28.3-6.6c-21-1.4-56.7-2.3-95.2-2.3
			c-38.6,0-74.2,0.8-95.2,2.3c-13.1,0.9-22.9,2.4-28.3,6.6c-3.4,2.7-8.1,8.5-10.5,28.4c-3.4,28.7-3.4,94.1,0,122.8
			c2.4,19.9,7.1,25.7,10.5,28.4c5.4,4.2,15.2,5.7,28.3,6.6c21,1.4,56.6,2.3,95.2,2.3s74.2-0.9,95.2-2.3c13.1-0.9,22.9-2.4,28.3-6.6
			c3.4-2.6,8.1-8.5,10.5-28.4C394.5,288.7,394.5,223.3,391.1,194.6z M224.1,298.9V213l82.4,42.9L224.1,298.9z"/>
	</g>
</g>
</svg>
